<mxfile host="app.diagrams.net" modified="2022-05-19T19:38:02.126Z" agent="5.0 (X11)" etag="vZnOFDCLjnA5Y_5HYzXc" version="18.0.6" type="github">
  <diagram id="e1QQgeSIEFL-RHZgehJZ" name="Page-1">
    <mxGraphModel dx="1350" dy="764" grid="1" gridSize="10" guides="1" tooltips="1" connect="1" arrows="1" fold="1" page="1" pageScale="1" pageWidth="827" pageHeight="1169" math="0" shadow="0">
      <root>
        <mxCell id="0" />
        <mxCell id="1" parent="0" />
        <mxCell id="FvvMaMzkXvDPvRKLerXG-9" value="&lt;p style=&quot;margin:0px;margin-top:4px;text-align:center;text-decoration:underline;&quot;&gt;&lt;b&gt;Car&lt;/b&gt;&lt;br&gt;&lt;/p&gt;&lt;hr&gt;&lt;p style=&quot;margin:0px;margin-left:8px;&quot;&gt;&lt;u&gt;name : string&lt;/u&gt;&lt;br&gt;&lt;/p&gt;&lt;p style=&quot;margin:0px;margin-left:8px;&quot;&gt;ip : string&lt;br&gt;color : string (hex color code)&lt;/p&gt;&lt;p style=&quot;margin:0px;margin-left:8px;&quot;&gt;currentStage: Stage&lt;/p&gt;&lt;p style=&quot;margin:0px;margin-left:8px;&quot;&gt;currentPlayerPseudo : string&lt;/p&gt;&lt;p style=&quot;margin:0px;margin-left:8px;&quot;&gt;currentRaceId : int (raceId)&lt;br&gt;&lt;/p&gt;" style="verticalAlign=top;align=left;overflow=fill;fontSize=12;fontFamily=Helvetica;html=1;" parent="1" vertex="1">
          <mxGeometry x="290" y="120" width="180" height="120" as="geometry" />
        </mxCell>
        <mxCell id="FvvMaMzkXvDPvRKLerXG-10" value="&lt;p style=&quot;margin:0px;margin-top:4px;text-align:center;text-decoration:underline;&quot;&gt;&lt;b&gt;ENUM: Stage&lt;/b&gt;&lt;br&gt;&lt;/p&gt;&lt;hr&gt;&lt;p style=&quot;margin:0px;margin-left:8px;&quot;&gt;DRIVE&lt;br&gt;RECORDING&lt;br&gt;AI_ASSISTED&lt;/p&gt;&lt;p style=&quot;margin:0px;margin-left:8px;&quot;&gt;MAINTAINANCE&lt;br&gt;&lt;/p&gt;" style="verticalAlign=top;align=left;overflow=fill;fontSize=12;fontFamily=Helvetica;html=1;" parent="1" vertex="1">
          <mxGeometry x="80" y="120" width="160" height="90" as="geometry" />
        </mxCell>
        <mxCell id="FvvMaMzkXvDPvRKLerXG-12" value="&lt;p style=&quot;margin:0px;margin-top:4px;text-align:center;text-decoration:underline;&quot;&gt;&lt;b&gt;Player&lt;/b&gt;&lt;br&gt;&lt;/p&gt;&lt;hr&gt;&lt;div&gt;&lt;u&gt;&amp;nbsp;playerPseudo: strin&lt;/u&gt;g&lt;/div&gt;&lt;div&gt;&amp;nbsp;registerDatetime : TIMESTAMP&lt;br&gt;&lt;/div&gt;" style="verticalAlign=top;align=left;overflow=fill;fontSize=12;fontFamily=Helvetica;html=1;" parent="1" vertex="1">
          <mxGeometry x="540" y="160" width="200" height="70" as="geometry" />
        </mxCell>
        <mxCell id="FvvMaMzkXvDPvRKLerXG-15" value="&lt;p style=&quot;margin:0px;margin-top:4px;text-align:center;text-decoration:underline;&quot;&gt;&lt;b&gt;Race&lt;/b&gt;&lt;br&gt;&lt;/p&gt;&lt;hr&gt;&lt;p style=&quot;margin:0px;margin-left:8px;&quot;&gt;&lt;u&gt;raceId: int&lt;/u&gt;&lt;br&gt;&lt;/p&gt;&lt;p style=&quot;margin:0px;margin-left:8px;&quot;&gt;&lt;i&gt;playerPseudo : string&lt;/i&gt;&lt;br&gt;stage : CarState&lt;br&gt;&lt;/p&gt;&lt;p style=&quot;margin:0px;margin-left:8px;&quot;&gt;&lt;i&gt;carName : string&lt;/i&gt;&lt;/p&gt;&lt;p style=&quot;margin:0px;margin-left:8px;&quot;&gt;startDatetime : TIMESTAMP&lt;br&gt;&lt;/p&gt;" style="verticalAlign=top;align=left;overflow=fill;fontSize=12;fontFamily=Helvetica;html=1;" parent="1" vertex="1">
          <mxGeometry x="60" y="340" width="290" height="120" as="geometry" />
        </mxCell>
        <mxCell id="FvvMaMzkXvDPvRKLerXG-18" value="&lt;p style=&quot;margin:0px;margin-top:4px;text-align:center;text-decoration:underline;&quot;&gt;&lt;b&gt;LapTimer&lt;/b&gt;&lt;br&gt;&lt;/p&gt;&lt;hr&gt;&lt;p style=&quot;margin:0px;margin-left:8px;&quot;&gt;&lt;u&gt;laptimerId : &lt;/u&gt;int&lt;br&gt;&lt;/p&gt;&lt;p style=&quot;margin:0px;margin-left:8px;&quot;&gt;startDatetime : TIMESTAMP&lt;/p&gt;&lt;p style=&quot;margin:0px;margin-left:8px;&quot;&gt;duration : int mili sec&lt;br&gt;&lt;/p&gt;&lt;p style=&quot;margin:0px;margin-left:8px;&quot;&gt;endDatetime : TIMESTAMP&lt;/p&gt;&lt;p style=&quot;margin:0px;margin-left:8px;&quot;&gt;&lt;br&gt;&lt;/p&gt;" style="verticalAlign=top;align=left;overflow=fill;fontSize=12;fontFamily=Helvetica;html=1;" parent="1" vertex="1">
          <mxGeometry x="550" y="360" width="240" height="100" as="geometry" />
        </mxCell>
        <mxCell id="-Hue8cJ2OavD4yJiswO7-1" value="&lt;p style=&quot;margin:0px;margin-top:4px;text-align:center;text-decoration:underline;&quot;&gt;&lt;font color=&quot;#A6A6A6&quot;&gt;&lt;b&gt;RaceTimings&lt;/b&gt;&lt;br&gt;&lt;/font&gt;&lt;/p&gt;&lt;hr&gt;&lt;p style=&quot;margin:0px;margin-left:8px;&quot;&gt;&lt;font color=&quot;#A6A6A6&quot;&gt;&lt;u&gt;raceId: &lt;/u&gt;int&lt;u&gt;&lt;br&gt;&lt;/u&gt;&lt;/font&gt;&lt;/p&gt;&lt;p style=&quot;margin:0px;margin-left:8px;&quot;&gt;&lt;font color=&quot;#A6A6A6&quot;&gt;&lt;u&gt;laptimerId :&lt;/u&gt; int&lt;br&gt;&lt;/font&gt;&lt;/p&gt;&lt;font color=&quot;#A6A6A6&quot;&gt;&lt;br&gt;&lt;/font&gt;&lt;p style=&quot;margin:0px;margin-left:8px;&quot;&gt;&lt;font color=&quot;#A6A6A6&quot;&gt;&lt;br&gt;&lt;/font&gt;&lt;/p&gt;" style="verticalAlign=top;align=left;overflow=fill;fontSize=12;fontFamily=Helvetica;html=1;strokeColor=#A6A6A6;" vertex="1" parent="1">
          <mxGeometry x="290" y="490" width="240" height="80" as="geometry" />
        </mxCell>
        <mxCell id="-Hue8cJ2OavD4yJiswO7-2" value="" style="endArrow=none;html=1;rounded=0;entryX=0.403;entryY=1.008;entryDx=0;entryDy=0;exitX=0;exitY=0.5;exitDx=0;exitDy=0;strokeColor=#A6A6A6;entryPerimeter=0;" edge="1" parent="1" source="-Hue8cJ2OavD4yJiswO7-1" target="FvvMaMzkXvDPvRKLerXG-15">
          <mxGeometry width="50" height="50" relative="1" as="geometry">
            <mxPoint x="100" y="590" as="sourcePoint" />
            <mxPoint x="150" y="540" as="targetPoint" />
            <Array as="points">
              <mxPoint x="175" y="530" />
            </Array>
          </mxGeometry>
        </mxCell>
        <mxCell id="-Hue8cJ2OavD4yJiswO7-3" value="" style="endArrow=none;html=1;rounded=0;entryX=0.563;entryY=1.015;entryDx=0;entryDy=0;exitX=1;exitY=0.5;exitDx=0;exitDy=0;entryPerimeter=0;strokeColor=#A6A6A6;" edge="1" parent="1" source="-Hue8cJ2OavD4yJiswO7-1" target="FvvMaMzkXvDPvRKLerXG-18">
          <mxGeometry width="50" height="50" relative="1" as="geometry">
            <mxPoint x="300" y="540" as="sourcePoint" />
            <mxPoint x="185" y="470" as="targetPoint" />
            <Array as="points">
              <mxPoint x="685" y="530" />
            </Array>
          </mxGeometry>
        </mxCell>
        <mxCell id="-Hue8cJ2OavD4yJiswO7-4" value="" style="endArrow=none;html=1;rounded=0;exitX=1;exitY=0.417;exitDx=0;exitDy=0;exitPerimeter=0;entryX=0.5;entryY=1;entryDx=0;entryDy=0;" edge="1" parent="1" source="FvvMaMzkXvDPvRKLerXG-15" target="FvvMaMzkXvDPvRKLerXG-9">
          <mxGeometry width="50" height="50" relative="1" as="geometry">
            <mxPoint x="390" y="300" as="sourcePoint" />
            <mxPoint x="440" y="250" as="targetPoint" />
            <Array as="points">
              <mxPoint x="380" y="390" />
            </Array>
          </mxGeometry>
        </mxCell>
        <mxCell id="-Hue8cJ2OavD4yJiswO7-8" value="" style="endArrow=none;html=1;rounded=0;entryX=0;entryY=0.5;entryDx=0;entryDy=0;exitX=1;exitY=0.5;exitDx=0;exitDy=0;" edge="1" parent="1" source="FvvMaMzkXvDPvRKLerXG-9" target="FvvMaMzkXvDPvRKLerXG-12">
          <mxGeometry width="50" height="50" relative="1" as="geometry">
            <mxPoint x="390" y="300" as="sourcePoint" />
            <mxPoint x="440" y="250" as="targetPoint" />
          </mxGeometry>
        </mxCell>
        <mxCell id="-Hue8cJ2OavD4yJiswO7-9" value="0..1" style="text;strokeColor=none;fillColor=none;align=left;verticalAlign=middle;spacingLeft=4;spacingRight=4;overflow=hidden;points=[[0,0.5],[1,0.5]];portConstraint=eastwest;rotatable=0;" vertex="1" parent="1">
          <mxGeometry x="510" y="165" width="40" height="30" as="geometry" />
        </mxCell>
        <mxCell id="-Hue8cJ2OavD4yJiswO7-10" value="0..1" style="text;strokeColor=none;fillColor=none;align=left;verticalAlign=middle;spacingLeft=4;spacingRight=4;overflow=hidden;points=[[0,0.5],[1,0.5]];portConstraint=eastwest;rotatable=0;" vertex="1" parent="1">
          <mxGeometry x="470" y="150" width="40" height="30" as="geometry" />
        </mxCell>
        <mxCell id="-Hue8cJ2OavD4yJiswO7-12" value="0..1" style="text;strokeColor=none;fillColor=none;align=left;verticalAlign=middle;spacingLeft=4;spacingRight=4;overflow=hidden;points=[[0,0.5],[1,0.5]];portConstraint=eastwest;rotatable=0;" vertex="1" parent="1">
          <mxGeometry x="390" y="250" width="40" height="30" as="geometry" />
        </mxCell>
        <mxCell id="-Hue8cJ2OavD4yJiswO7-13" value="1" style="text;strokeColor=none;fillColor=none;align=left;verticalAlign=middle;spacingLeft=4;spacingRight=4;overflow=hidden;points=[[0,0.5],[1,0.5]];portConstraint=eastwest;rotatable=0;" vertex="1" parent="1">
          <mxGeometry x="350" y="360" width="40" height="30" as="geometry" />
        </mxCell>
        <mxCell id="-Hue8cJ2OavD4yJiswO7-14" value="0..*" style="text;strokeColor=none;fillColor=none;align=left;verticalAlign=middle;spacingLeft=4;spacingRight=4;overflow=hidden;points=[[0,0.5],[1,0.5]];portConstraint=eastwest;rotatable=0;" vertex="1" parent="1">
          <mxGeometry x="180" y="470" width="40" height="20" as="geometry" />
        </mxCell>
        <mxCell id="-Hue8cJ2OavD4yJiswO7-20" value="1..1" style="text;strokeColor=none;fillColor=none;align=left;verticalAlign=middle;spacingLeft=4;spacingRight=4;overflow=hidden;points=[[0,0.5],[1,0.5]];portConstraint=eastwest;rotatable=0;" vertex="1" parent="1">
          <mxGeometry x="690" y="470" width="40" height="30" as="geometry" />
        </mxCell>
        <mxCell id="-Hue8cJ2OavD4yJiswO7-22" value="" style="endArrow=none;html=1;rounded=0;fontColor=#A6A6A6;strokeColor=#000000;exitX=1;exitY=0.75;exitDx=0;exitDy=0;entryX=-0.017;entryY=0.69;entryDx=0;entryDy=0;entryPerimeter=0;" edge="1" parent="1" source="FvvMaMzkXvDPvRKLerXG-15" target="FvvMaMzkXvDPvRKLerXG-18">
          <mxGeometry width="50" height="50" relative="1" as="geometry">
            <mxPoint x="390" y="300" as="sourcePoint" />
            <mxPoint x="440" y="250" as="targetPoint" />
          </mxGeometry>
        </mxCell>
        <mxCell id="-Hue8cJ2OavD4yJiswO7-23" value="1..1" style="text;strokeColor=none;fillColor=none;align=left;verticalAlign=middle;spacingLeft=4;spacingRight=4;overflow=hidden;points=[[0,0.5],[1,0.5]];portConstraint=eastwest;rotatable=0;" vertex="1" parent="1">
          <mxGeometry x="500" y="395" width="40" height="30" as="geometry" />
        </mxCell>
        <mxCell id="-Hue8cJ2OavD4yJiswO7-25" value="0..N" style="text;strokeColor=none;fillColor=none;align=left;verticalAlign=middle;spacingLeft=4;spacingRight=4;overflow=hidden;points=[[0,0.5],[1,0.5]];portConstraint=eastwest;rotatable=0;" vertex="1" parent="1">
          <mxGeometry x="350" y="395" width="40" height="30" as="geometry" />
        </mxCell>
      </root>
    </mxGraphModel>
  </diagram>
</mxfile>
